<svg xmlns="http://www.w3.org/2000/svg" xmlns:xlink="http://www.w3.org/1999/xlink" version="1.1" width="1000" height="1000" viewBox="0 0 1000 1000" xml:space="preserve">
<desc>Created with Fabric.js 3.5.0</desc>
<defs>
</defs>
<rect x="0" y="0" width="100%" height="100%" fill="#ffffff"/>
<g transform="matrix(0.6492 0 0 0.6492 499.9911 499.9915)" id="337062">
<path style="stroke: none; stroke-width: 1; stroke-dasharray: none; stroke-linecap: butt; stroke-dashoffset: 0; stroke-linejoin: miter; stroke-miterlimit: 4; is-custom-font: none; font-file-url: none; fill: rgb(0,0,0); fill-rule: nonzero; opacity: 1;" vector-effect="non-scaling-stroke" transform=" translate(-243.0986, -243.0985)" d="M 481.708 220.456 l -228.8 -204.6 c -0.4 -0.4 -0.8 -0.7 -1.3 -1 c -5 -4.8 -13 -5 -18.3 -0.3 l -228.8 204.6 c -5.6 5 -6 13.5 -1.1 19.1 c 2.7 3 6.4 4.5 10.1 4.5 c 3.2 0 6.4 -1.1 9 -3.4 l 41.2 -36.9 v 7.2 v 106.8 v 124.6 c 0 18.7 15.2 34 34 34 c 0.3 0 0.5 0 0.8 0 s 0.5 0 0.8 0 h 70.6 c 17.6 0 31.9 -14.3 31.9 -31.9 v -121.3 c 0 -2.7 2.2 -4.9 4.9 -4.9 h 72.9 c 2.7 0 4.9 2.2 4.9 4.9 v 121.3 c 0 17.6 14.3 31.9 31.9 31.9 h 72.2 c 19 0 34 -18.7 34 -42.6 v -111.2 v -34 v -83.5 l 41.2 36.9 c 2.6 2.3 5.8 3.4 9 3.4 c 3.7 0 7.4 -1.5 10.1 -4.5 C 487.708 233.956 487.208 225.456 481.708 220.456 z M 395.508 287.156 v 34 v 111.1 c 0 9.7 -4.8 15.6 -7 15.6 h -72.2 c -2.7 0 -4.9 -2.2 -4.9 -4.9 v -121.1 c 0 -17.6 -14.3 -31.9 -31.9 -31.9 h -72.9 c -17.6 0 -31.9 14.3 -31.9 31.9 v 121.3 c 0 2.7 -2.2 4.9 -4.9 4.9 h -70.6 c -0.3 0 -0.5 0 -0.8 0 s -0.5 0 -0.8 0 c -3.8 0 -7 -3.1 -7 -7 v -124.7 v -106.8 v -31.3 l 151.8 -135.6 l 153.1 136.9 L 395.508 287.156 L 395.508 287.156 z" stroke-linecap="round"/>
</g>
</svg>